<svg width="100" height="59" fill="none" xmlns="http://www.w3.org/2000/svg"><path d="M98.9032 16.894c-2.4838-4.2235-6.5161-5.9-13.5484-6.2224 0-.129.0323-.2579.0323-.3869 0-1.0962-.2903-2.1279-.9032-3.095C81.8065 2.966 73.1613.6447 58.0968.0321h-.0323L.5806 0s14.8388 5.094 23.3226 10.865C11.9677 16.088 7 33.2399 7 33.2399s4.1935-1.8055 4.4516-1.9344C1.3226 43.3634 0 58.7421 0 58.7421s5.742-8.5115 16.7097-14.2181c-1.7097 3.5143-3.3226 6.7705-3.4516 7.0607l-.0323.0645c-.2581.5481-.3871 1.1606-.3871 1.7732 0 .7415.1936 1.4508.5807 2.0634.5483.9027 1.6774 1.9667 3.9677 1.9667h63.3871c3.129 0 5.5161-.3547 7.5484-5.1585l5.5161-13.0251c.129-.3547.3226-.7738.4516-1.2252 3.1613-6.9317 7.6447-16.0235 4.6129-21.1497z" fill="#A5ACAF"/><path d="M87.8386 29.7259c4 .1612 5.3549 1.2574 5.7419 4.4815 3.1291-5.5776 12.1935-22.0847-10.2903-21.8913 1.871-4.4492-1.4516-9.6399-25.2258-10.5749L9.9031 1.6768s10.3226 3.8366 17.3871 9.6398C15.8709 14.7019 9.9677 30.1451 9.9677 30.1451c7.4838-3.2241 8.8387-3.5142 8.8387-3.5142C7.4515 33.6593 3.0967 52.391 3.0967 52.391s6.0322-7.641 17.6129-12.0257c-2.3226 4.7716-5.9032 12.0579-5.9032 12.0579v.0322c-.1291.258-.2259.6126-.2259.9673 0 .3546.0968.7415.2904 1.0961.4516.7416 1.2903 1.1285 2.4838 1.1285h63.3871c2.8065 0 4.2904-.258 5.9355-4.0623l5.5161-13.0252c.5484-1.2896.8388-2.3535.4194-3.1918-.5161-.9994-1.7097-1.612-3.5806-1.5798H63.7418c3.2258-2.9983 7.8387-3.8688 10-3.9333 2.5162-.0967 10.9033-.2579 14.0968-.129z" fill="#041E42"/><path d="M74.0322 18.1195c-.871.806-2.0645 1.2252-3.2903 1.064-1.9355-.258-3.3549-1.9022-3.4839-3.8367-8.129-2.8049-18.2581-5.0617-18.3548-5.094h-.0323c-3.9355-.8704-18-3.6431-20.9032-4.2235-.3549-.0644-.5484-.129-.5484-.129 5.6774 1.7088 14.7419 6.5449 16.3871 7.4476 4.3871.258 9.4516 1.0962 15.258 2.8049 0 0-3.9354-.2256-9.3871-.1289-9.6774.2257-24.0967 1.612-29.5806 7.641 4.7742-1.8377 11.6774-2.4503 16.9032-1.5153 11.9033-1.6443 22.2581 3.2885 22.2581 3.2885-4.9032.0967-8.4516 2.5792-8.4516 2.5792S25.258 24.1485 11.0645 42.3321c0 0 9.0967-9.1563 22.4193-9.1563h24.7097s2.7096-4.9973 10.1613-6.1257c-2.1613-2.9661-8.871-5.5131-8.871-5.5131 9.9677 0 10.2258.4514 12.8064-.7093 2.9355-1.3218 3.1936-1.8377 3.1936-1.8377a28.7773 28.7773 0 00-1.4516-.8705z" fill="#A5ACAF"/><path d="M87.8388 15.8625l-6.4193-.4191s-6.3548 4.8683-1.0968 5.9322c0 0-7.2903.935-9.7097 2.8049 0 0 1.2258 1.9989 2.0323 2.8049 0 0 12.6452-.2579 15.6129 0 0 0-5.6129-2.0956-13.3226-1.0317l-.8064-1.1606c3.2258-1.3541 11.9677-.7738 11.9677-.7738s5.3226.4191 7.1936 3.6432c0 .0645 5.9677-11.3809-5.4517-11.8zm-5.387 2.6759c-.3549.4514-.9678.7093-1.3549.6126-.3871-.0967-.4193-.5481-.0645-.9994.3548-.4514.9677-.7093 1.3548-.6126.3871.1289.4194.5481.0646.9994zm9.8387 4.1268c-.3549-3.8366-5.5484-4.1268-5.5484-4.1268-.6774 1.8055-3.9355 1.3541-3.9355 1.3541 3.871-.8705 2.1935-2.418 2.1935-2.418 8.871.0322 7.2904 5.1907 7.2904 5.1907zM34.3549 38.2697l1.3226-2.5793h-6.5807c-.871 0-2.8387.129-3.7419 1.7733-.4516.806-2.3226 4.4814-2.3226 4.4814-.0968.1934-.3226.6448-.3226 1.0961 0 .1935.0323.3869.1613.5804.2903.4513.9032.677 1.871.677h6.4838l2.4194-4.7071h-4.8387l-1.0323 1.9989h.9033c-.1613.2902-.2904.5804-.3871.7093h-.742c-.3548 0-.4193-.0967-.4516-.0967v-.0645c0-.0645.0323-.1612.129-.3869 0 0 1.742-3.4175 2.0968-4.0945h1.5484c-.0645.0967-.2903.5803-.2903.5803h3.7742v.0323zm-5.2903-1.0317l-2.2259 4.3202c-.129.2901-.2903.6448-.129.9027.129.2257.3871.3224.8387.3224h1.0323l.8387-1.6442h-.9032c.1935-.3547.4838-.9028.5484-1.064h3.7741c-.2903.5481-1.8387 3.5787-1.9354 3.7722h-6.1936c-.8064 0-1.3226-.1612-1.4839-.4514-.0645-.0967-.0967-.2257-.0967-.3224 0-.3547.1935-.7415.2903-.8705 0 0 1.9677-3.9978 2.6129-4.9005.6452-.9028 2.2258-1.1285 2.7742-1.1285h6.129c-.2258.4514-.7419 1.4509-.8387 1.6443h-2.7097c.0645-.0967.2904-.5803.2904-.5803h-2.6129zM41.2903 37.6893h2.7742l1.0645-1.9989h-5.2903c-2.8065 0-3.8065 2.0312-3.871 2.1924l-3.4194 6.4481h8.0646l.4516-.8705v-.0323-.1612c0-.2257-.0645-.4191-.1936-.5803-.1935-.2257-.5161-.3546-.9032-.3546h-2.0968c.2258-.4514.742-1.3864.8387-1.5476h3.1936l1.0645-1.9989h-3.1935l.258-.4514c.1936-.4513.6452-.6448 1.2581-.6448zm-1.6774.3869L39 39.2369h3.1935c-.1935.3869-.4839.9027-.5806 1.0639h-3.1936l-1.3226 2.4825h2.871c.2581 0 .4516.0645.5484.1935.0645.0644.0968.1612.0968.2579v.0645c-.0323.0645-.1936.3869-.2904.5481h-7.0322c.3226-.6126 3.0645-5.7711 3.0645-5.7711.0323-.0645.9032-1.9344 3.4516-1.9344h4.5161c-.1935.3869-.4838.9027-.5806 1.0639H41.258c-.9677.0323-1.4193.4836-1.6451.8705zM59.9033 37.5283h-.871l-1.3226 2.4825 2.5161-.8705.3871-.7415c.1291-.2257.1291-.4514.0645-.6126-.1612-.2256-.4838-.2579-.7741-.2579zm.2903.6448s-.2258.3869-.3226.5804c-.0968.0322-.7097.2579-1.2258.4191.2581-.4836.5484-1.0317.6452-1.1929h.6129c.2258 0 .2903.0322.3225.0322 0 .0323 0 .0645-.0322.1612z" fill="#A99260"/><path d="M64.7097 36.3997c-.4194-.677-1.8065-.7093-1.9677-.7093H56.3871l-4.6452 8.6405h4.1613s1.3226-2.4825 1.5162-2.8694c.2258.1612.5484.3546.7419.4836-.1613.3224-1.2581 2.3858-1.2581 2.3858h4.0323l1.7419-3.2886s-.7419-.4191-1.1613-.6448c.5807-.1934 1.871-.6448 1.871-.6448l1.2903-2.3535c.1291-.2257.1613-.4192.1613-.5804 0-.1934-.0645-.3224-.129-.4191zm-.4516.7738s-1.129 2.0311-1.1936 2.1923c-.1613.0645-2.6451.935-2.6451.935s1.3548.7738 1.6451.935c-.1613.3224-1.2903 2.4503-1.4193 2.6437h-3c.258-.4836 1.0968-2.0634 1.0968-2.0634l-1.5162-.9994s-1.5161 2.8371-1.6451 3.0628h-3.0968c.3226-.6126 4.0322-7.4798 4.1613-7.7055h6.0968c.4838 0 1.3548.129 1.5806.4836 0 .0323.0323.0645.0323.1612.0322.0645 0 .1935-.0968.3547zM74.5485 38.2697l1.3226-2.5793h-6.8709c-2.5484 0-3.2581 1.3541-3.9355 2.676l-1.871 3.5787c-.1613.2901-.5484 1.0639-.1935 1.6765.2903.4513.9032.677 1.8709.677h6.4839l2.4193-4.7071h-4.8064l-1.0323 1.9989h.9033c-.1613.2902-.2904.5804-.3871.7093h-.742c-.3548 0-.4193-.0967-.4516-.0967v-.0645c0-.0645.0323-.1612.1291-.3869 0 0 1.7419-3.4175 2.0967-4.0945h1.5484c-.0645.0967-.2903.5803-.2903.5803h3.8064v.0323zM69.226 37.238l-2.2258 4.3202c-.1291.2901-.2904.6448-.1291.9027.1291.2257.3871.3224.8387.3224h1.0323l.8387-1.6442h-.9032c.1935-.3547.4838-.9028.5484-1.064h3.7742c-.2904.5481-1.8388 3.5787-1.9355 3.7722h-6.1936c-.8064 0-1.2903-.1612-1.4838-.4514-.0646-.0967-.0968-.2257-.0968-.3224 0-.3547.1935-.7415.2903-.8705l1.871-3.5787c.6774-1.3218 1.258-2.4503 3.5161-2.4503h6.129c-.2258.4514-.7419 1.4509-.8387 1.6443h-2.7097c.0646-.0967.2904-.5803.2904-.5803H69.226zM80.4839 35.6904h-3.6774l-4.5807 8.6405h4.0645l4.5807-8.6405h-.3871zM76 43.8473h-3c.3226-.6126 3.9678-7.4798 4.0968-7.7055h3c-.3226.6126-3.9677 7.4798-4.0968 7.7055zM85.3873 37.4316h-.1291l-2.4193 3.8689h2.0967l1.1936-2.6115c.1613-.3224.2903-.677.129-.9672-.1613-.2902-.5484-.2902-.8709-.2902zm.3548 1.0317s-.8387 1.8377-1.0968 2.3536h-.9677c.3548-.5481 1.7419-2.7405 1.8387-2.9339.3226 0 .3548.0645.3548.0967v.0323c.0323.0644 0 .1934-.129.4513z" fill="#A99260"/><path d="M89.7743 36.5287c-.3548-.5481-1.129-.8383-2.4516-.8383h-4.0323l-6.3871 8.6405h4.2258s.8387-1.3219.9678-1.5153h1.5806c-.1935.3869-.6774 1.5153-.6774 1.5153h3.9677l2.6129-5.9c.4194-.8383.4839-1.4509.1936-1.9022zm-.5807 1.6765s-2.387 5.3841-2.5161 5.6421H83.742c.1936-.3869.6775-1.5153.6775-1.5153h-2.5484s-.8387 1.3218-.9678 1.5153h-3.0645c.4839-.6771 5.5807-7.5443 5.7097-7.7055h3.7742c1.0968 0 1.8064.2257 2.0322.6126.0646.1289.0968.2579.0968.4191.0323.2902-.0645.6448-.2581 1.0317zM28.0644 47.6837l1.3549-2.5792h-.3871-5.3548c-1.1936 0-2.3226.3546-2.8065 1.1929-.3871.7415-1.0323 1.741-1.2581 2.5147-.2258.7738.5162 1.4831 1.5484 1.5476l1.2581.0645c.4516.0322.5161.2257.4193.3869 0 0-.4838.8704-.5806 1.0639h-.4516c-.129 0-.1936 0-.2258-.0323 0-.0322.0322-.1289.0968-.2579.0645-.1289.0967-.2257.0967-.3224 0-.1289-.0322-.1934-.0645-.2579-.1613-.2902-.6129-.3546-.9355-.3546h-2.129l-.8387 1.5475c0 .0322-.2581.5158.0322.9672.2259.3869.742.5481 1.5162.5481h3.3871c.0967 0 2.1613-.0322 2.8387-1.2896l1.0968-2.0634c.1935-.3224.258-.6126.258-.8383 0-.1934-.0645-.3546-.129-.4836-.1936-.3869-.6774-.6448-1.2581-.677 0 0-1.1935-.0967-1.258-.0967-.1291-.0323-.5162-.0645-.5484-.129v-.0322c0-.0323.0322-.1612.1935-.4837 0 0 .2581-.4513.3549-.677h.8064c-.0968.1934-.3871.7415-.3871.7415h3.3548zm-4.0967-1.1606l-.5162.9027c-.1935.3869-.3225.6771-.1935.9027.129.258.4516.3224.9032.3869l1.2903.0967c.4517.0323.7742.1935.9033.4514.1613.2579 0 .6126-.1291.8705l-1.0967 2.0956c-.5484 1.0317-2.4194 1.064-2.4516 1.064h-3.3871c-.5807 0-.9678-.129-1.1291-.3547-.0645-.0645-.0645-.1612-.0645-.2257 0-.1289.0645-.2579.0645-.2579 0-.0322.6129-1.0962.7097-1.3218h1.871c.3548 0 .6129.0967.5161.2901-.0968.1935-.2258.5159-.0968.7093.1291.1935.3871.2257.6452.2257h.7419l.7097-1.3219c.0968-.1612.1613-.3224.1613-.4836 0-.0645-.0323-.1612-.0645-.2257-.1613-.2579-.5162-.3224-.9033-.3546l-1.1612-.0645c-1.1936-.0967-1.2258-.7738-1.2258-.8382 0-.0968.0322-.1935.0645-.3869l.0967-.2902s.5484-1.0317 1.0968-1.9022c.5484-.8705 1.9678-.9027 2.5484-.9027h4.7742l-.871 1.6443h-2.3548c.0968-.1935.3871-.7416.3871-.7416h-1.8387v.0323zM33.4518 46.4902h-.7742l-2.6452 4.8361c-.1935.3224-.1935.5803-.0968.7738.1613.2579.4839.2579.5162.2579h.7742l2.6451-4.8038c.1613-.3224.1936-.5804.0968-.806-.1613-.2257-.4839-.258-.5161-.258zm0 .8705s-2.0968 3.8366-2.5162 4.5782h-.5161c-.0322 0-.0968-.0323-.0968-.0323v-.0322c0-.0323.0323-.129.0968-.2902 0 0 2.129-3.8688 2.5161-4.6104h.4839c.0323 0 .0968.0323.129.0323v.0322c0 .0645-.0322.1612-.0967.3224z" fill="#A99260"/><path d="M37.3871 45.7493c-.3548-.6126-1.5161-.6126-1.6452-.6126h-3.1935c-1.9678 0-2.7742 1.2252-2.8065 1.2896l-3.0967 5.6421c-.0968.1935-.3871.6771-.1291 1.1284.2258.3869.742.5481 1.5807.5481h3.3226c.0967 0 2.0645 0 2.8709-1.483l3.0968-5.6421c.1935-.3869.129-.6771 0-.8705zm-.4516.677l-3.0968 5.6421c-.6774 1.1929-2.4193 1.2252-2.4516 1.2252h-3.3226c-.8387 0-1.0968-.1935-1.1613-.3225-.0322-.0644-.0322-.0967-.0322-.1612 0-.1934.129-.3868.1613-.4836 0 0 2.9677-5.4164 3.0967-5.642.0645-.0645.7742-1.064 2.4194-1.064h3.1935c.3226 0 1.0645.0967 1.2581.3869.0323.0323.0968.129-.0645.4191zM62.0646 45.1367h-3.0968s-1.5807 2.9339-1.7097 3.1596h-.7097c.2904-.5481 1.7097-3.1596 1.7097-3.1596h-3.4839l-.9354 1.741c.0967-.2579.1612-.5158.1612-.7737 0-.1935-.0322-.3547-.129-.5159-.1935-.3224-.6129-.4836-1.2903-.4836h-3.9355c-1.1613 0-1.871.4836-2.3548 1.0317l.5806-1.0317h-3.5161s-3.5807 6.5448-3.7097 6.8027H39c0-.0322.0323-.1612.1613-.3868l3.5162-6.4159h-3.5162l-3.8064 6.9639c-.0968.1935-.3871.6771-.1291 1.1285.2259.3868.742.548 1.5807.548h3.3226c.0967 0 2.0645 0 2.8709-1.483l2.8065-5.094h2.2581c-.3226.6126-3.5162 6.6415-3.5162 6.6415h3.4839s3.3871-6.4158 3.5161-6.6737h2.1613l-3.5484 6.6737h3.4839s1.6774-3.1595 1.8065-3.3852h.7096c-.2903.5481-1.8064 3.3852-1.8064 3.3852h3.4839l4.6774-8.7371h-.4516v.0644zm-19.5162 6.9317c-.6451 1.1929-2.4193 1.2252-2.4516 1.2252h-3.3226c-.8387 0-1.0967-.1935-1.1613-.3224-.0322-.0645-.0322-.0967-.0322-.1612 0-.1935.129-.3869.1613-.4836 0 0 3.1935-5.8033 3.6774-6.706h2.4516c-.3226.6125-3.129 5.7065-3.129 5.7065-.1291.2257-.2258.4514-.2258.6448 0 .0645.0322.1612.0645.2257.129.2257.4516.2257.5484.2257h.8064s3.6129-6.5448 3.7097-6.8027h2.4516c-.3226.6125-3.5484 6.448-3.5484 6.448zm10.871-5.3519h-2.1935s-3.3871 6.4159-3.5162 6.6738h-2.4516c.3226-.6126 3.5161-6.6738 3.5161-6.6738h-2.3225c.4516-.6125 1.0645-1.1606 2.2258-1.1606h3.9354c.4839 0 .7742.0967.9033.2579.0322.0645.0645.129.0645.2579 0 .1935-.0645.3869-.1613.6448zm4.0645 6.6738h-2.4193c.2903-.5481 1.8064-3.3852 1.8064-3.3852h-1.7742s-1.6774 3.1595-1.8064 3.3852H50.871c.3226-.6126 4.0323-7.5765 4.1613-7.8022h2.4194c-.2904.5481-1.7097 3.1596-1.7097 3.1596h1.7742s1.5806-2.9339 1.7097-3.1596h2.4193c-.3226.6448-4.0323 7.5765-4.1613 7.8022zM66.5484 47.1356h2.0968l1.0967-1.9989h-4.129c-2.2903 0-3.3226 2.1279-3.3548 2.1924l-3.3226 6.1901-.1936.3547h6.4194l.3226-.6448c.2258-.3869.258-.7416.0968-.9995-.1613-.2579-.4839-.4191-1.0001-.4191h-1.1935c.2258-.4514.7419-1.3864.8387-1.5476h2.4194l1.0967-1.9989h-2.4193l.2581-.4513c.1612-.4514.5161-.6771.9677-.6771zm-1.4516.3869l-.6129 1.1607h2.4193c-.1935.3869-.4838.9349-.5806 1.0639h-2.4194l-1.3548 2.4825h2c.3226 0 .5161.0645.5806.1935.0323.0322.0323.0967.0323.1289 0 .0967-.0323.2579-.129.4191 0 0-.1291.258-.1936.4192h-5.3226c.3226-.6126 3.1291-5.8355 3.1291-5.8355.0322-.0968.9355-1.9667 2.9355-1.9667h3.3548c-.1936.3869-.4839.935-.5807 1.0639h-1.8064c-.6452.0323-1.129.3224-1.4516.8705zM77.1936 45.7493c-.3549-.6126-1.4194-.6126-1.5484-.6126h-5.2258l-4.6775 8.7049h3.5162s1.4516-2.7404 1.6774-3.1918c.1935.1612.3548.3224.4839.4192-.1613.2901-1.4517 2.7726-1.4517 2.7726h3.4194l1.9355-3.6431s-.5807-.4514-.9032-.6771c.4838-.1934 1.6129-.677 1.6129-.677l1.0967-2.0634c.1291-.2257.1936-.4514.1936-.6448 0-.0967-.0323-.258-.129-.3869zm-.4839.8705s-.9678 1.7732-1.0323 1.9022c-.129.0644-2.2258.9027-2.2258.9027s1 .7415 1.2258.935c-.1613.2901-1.4838 2.8049-1.6129 3.0306h-2.3548c.258-.5159 1.2581-2.4181 1.2581-2.4181l-1.1936-1.0639s-1.7097 3.224-1.8387 3.482h-2.4516c.3226-.6126 4.0322-7.5765 4.1613-7.8022h4.9677c.2258 0 .9678.0645 1.1613.3869.0968.1612.0968.3546-.0645.6448z" fill="#A99260"/><path d="M73.3226 46.6846h-.7419l-1.3549 2.547 2.2904-.935.3871-.7415c.0645-.0968.2258-.3869.0645-.6448-.1936-.2257-.5162-.2257-.6452-.2257zm.129.6448s-.2258.4191-.3225.5803c-.0968.0322-.4839.1934-.9033.3869.2581-.4836.5484-.9995.6129-1.1284h.4839c.129 0 .1613 0 .1936.0322 0 0-.0323.0323-.0646.129zM83.3547 45.2656s-1 2.2891-1.4193 3.2241c-.1613-.9995-.4839-3.2241-.4839-3.2241h-2.6452l-.0645.129-4.129 8.447h3.3226s1.1935-2.5148 1.6451-3.482c.1291.9995.4194 3.482.4194 3.482h1.2258c.6452-.0323 1.871-.4191 2.7419-2.547l2.4194-5.7066.129-.3224h-3.1613zm.2258 5.8355c-.7742 1.87-1.8064 2.2246-2.3548 2.2569h-.8065c-.0322-.3547-.5806-4.6104-.5806-4.6104s-2.0645 4.3847-2.1936 4.6104h-2.3225c.2903-.5804 3.6451-7.4153 3.7742-7.6732h1.9677c.0645.3546.6452 4.3847.6452 4.3847s1.8064-4.1591 1.9354-4.3847h2.1936c-.1935.6125-2.2581 5.4163-2.2581 5.4163zM49.9356 37.0439h-.9032L46.4518 41.88c-.1613.2902-.1936.5481-.0646.7415.1613.2902.5807.2902.6129.2902h.9033l2.5483-4.8038c.1613-.2902.1936-.5481.0646-.7415-.1613-.2902-.5484-.3225-.5807-.3225zm.1291.8705s-2.0323 3.8367-2.4194 4.5782h-.6129c-.0645 0-.1936-.0323-.2258-.0645v-.0322c0-.0323.0322-.129.0968-.258 0 0 2.0645-3.8688 2.4516-4.6103h.5806c.0645 0 .1936.0322.2258.0967v.0645c-.0322.0322-.0322.0967-.0967.2256z" fill="#A99260"/><path d="M54.484 36.3675c-.3871-.6448-1.8387-.6771-2-.6771h-3.7742c-2.2581 0-3.0968 1.2252-3.1291 1.2896l-2.8709 5.3842c-.2904.5481-.3226.9995-.1291 1.3219.2581.4191.8387.6448 1.7742.6448h3.9033c.0967 0 2.387 0 3.1612-1.4831l3-5.6421c.2581-.3869.1613-.677.0646-.8382zm-.4194.6125l-3 5.6421c-.6452 1.1929-2.7419 1.2252-2.7742 1.2252h-3.9032c-.7419 0-1.2258-.129-1.3871-.4192-.0323-.0644-.0645-.1612-.0645-.2579 0-.2579.129-.5158.1935-.6126 0 0 2.7097-5.0939 2.8387-5.3519.0645-.0967.7742-1.0639 2.742-1.0639h3.7742c.5483 0 1.4193.129 1.6129.4514 0 .0322.0322.0644.0322.1289 0 .0645 0 .1612-.0645.2579z" fill="#A99260"/><path d="M92.2903 22.6653s1.5806-5.1585-7.2904-5.1585c0 0 1.6775 1.5476-2.1935 2.4181 0 0 3.2258.4513 3.9355-1.3541 0 0 5.1935.2579 5.5484 4.0945zM68.9356 6.7062c12.3871 1.9667 10.3225 4.9328 8.7096 6.706-6.6774-1.8377-13.1613-2.8371-28.3871-3.1273h-.3871c-3.9354-.8705-18-3.6432-20.9032-4.2235-.3548-.0645-.5484-.129-.5484-.129 4.4516-.1612 29.0968-1.1928 41.5162.7738zM20.0967 23.6641c2.2258-6.1256 13.2903-15.0562 38.9677-7.512 0 0-30.3871-1.9022-38.9677 7.512zM72.8709 15.5072c-.1613.8705-.9677 1.4831-1.8387 1.3541-.7097-.0967-1.2258-.6448-1.3548-1.3541.0967.1612.258.2902.4516.2902.3226 0 .5806-.3224.5806-.7093v-.0967c-.3548-.0645-.7097-.1612-1.0645-.2257l-.871-.1934v.0322c-.1935 1.4831.7742 2.8372 2.1936 3.0306 1.2903.1612 2.4839-.677 2.8387-1.9344-.2903-.0645-.6129-.129-.9355-.1935z" fill="#fff"/><path d="M59.258 25.4372s-31.9677-15.2819-48.1935 16.894C25.258 24.1476 50.8064 28.0165 50.8064 28.0165s3.5484-2.4825 8.4516-2.5793zM32.5483 45.5879h3.1935c.3226 0 1.0645.0967 1.2581.3869.0322.0322.0967.1612-.0645.4513l-3.0968 5.6421c-.6774 1.1929-2.4194 1.2252-2.4516 1.2252h-3.3226c-.8387 0-1.0968-.1935-1.1613-.3224-.0323-.0645-.0323-.0968-.0323-.1612 0-.1935.1291-.3869.1613-.4837 0 0 2.9678-5.4163 3.0968-5.642.0645-.0968.7742-1.0962 2.4194-1.0962zm.9032.9027h-.7742l-2.6452 4.8361c-.1935.3224-.1935.5803-.0967.7738.1613.2579.4838.2579.5161.2579h.7742l2.6451-4.8038c.1613-.3224.1936-.5804.0968-.8061-.1613-.2256-.4839-.2579-.5161-.2579zM46.0967 45.5879c-.3548.6126-3.5484 6.4803-3.5484 6.4803-.6452 1.1929-2.4193 1.2252-2.4516 1.2252h-3.3226c-.8387 0-1.0968-.1935-1.1613-.3224-.0322-.0645-.0322-.0968-.0322-.1612 0-.1935.129-.3869.1613-.4837 0 0 3.1935-5.8032 3.6774-6.706h2.4516c-.3226.6126-3.129 5.7066-3.129 5.7066-.1291.2257-.2259.4514-.2259.6448 0 .0645.0323.1612.0646.2257.129.2257.4516.2257.5484.2257h.8064s3.6129-6.5448 3.7097-6.8028c.2258-.0322 1.9032-.0322 2.4516-.0322zM48.6774 45.5879h3.9355c.4839 0 .7742.0967.9032.2579.0323.0645.0645.129.0645.2579 0 .1612-.0645.3869-.1613.6448h-2.1935s-3.3871 6.4159-3.5161 6.6738h-2.4516c.3225-.6126 3.5161-6.6738 3.5161-6.6738h-2.3226c.4516-.6125 1.0968-1.1606 2.2258-1.1606zM61.6775 45.5879c-.3226.6126-4.0322 7.5765-4.1613 7.8022h-2.4193c.2903-.5481 1.8064-3.3853 1.8064-3.3853h-1.7742s-1.6774 3.1596-1.8064 3.3853h-2.4194c.3226-.6126 4.0323-7.5765 4.1613-7.8022h2.4194c-.2904.5481-1.7097 3.1596-1.7097 3.1596h1.7742s1.5806-2.9339 1.7097-3.1596h2.4193zM62.6451 47.5546c.0323-.0968.9355-1.9667 2.9355-1.9667h3.3549c-.1936.3869-.4839.935-.5807 1.0639h-1.8064c-.6452 0-1.1613.2902-1.4516.8705l-.6129 1.1607h2.4193c-.1935.3869-.4838.9349-.5806 1.0639h-2.4194l-1.3548 2.4825h2c.3226 0 .5161.0645.5806.1935.0323.0322.0323.0967.0323.1289 0 .0967-.0323.2579-.129.4191 0 0-.1291.258-.1936.4192h-5.3226c.3549-.6126 3.129-5.8355 3.129-5.8355zM75.6452 45.5879c.2258 0 .9677.0645 1.1613.3869.0967.129.0645.3546-.0968.6126 0 0-.9678 1.7732-1.0323 1.9021-.129.0645-2.2258.9028-2.2258.9028s1 .7415 1.2258.9349c-.1613.2902-1.4838 2.805-1.6129 3.0306h-2.3548c.2581-.5158 1.2581-2.418 1.2581-2.418l-1.1936-1.0639s-1.7097 3.224-1.8387 3.4819h-2.4516c.3226-.6125 4.0322-7.5765 4.1613-7.8021.2903.0322 5 .0322 5 .0322zm-2.9678 1.0962h-.129l-1.3548 2.547 2.2903-.935.3871-.7415c.0645-.0968.2258-.3869.0645-.6448-.1613-.258-.4839-.258-.6129-.258h-.6452v.0323zM36.3873 38.1083c.0323-.0968.9032-1.9345 3.4516-1.9345h4.5161c-.1935.3869-.4838.9028-.5806 1.064h-2.4839c-1 0-1.4516.4513-1.6774.8705l-.6129 1.1606h3.1936c-.1936.3869-.4839.9027-.5807 1.0639h-3.1935l-1.3226 2.4826h2.8709c.2581 0 .4517.0644.5484.1934.0646.0645.0968.1612.0968.2579v.0645c-.0322.0645-.1935.3869-.2903.5481h-7.0323c.3549-.6126 3.0968-5.771 3.0968-5.771zM62.7422 36.1416c.4839 0 1.3548.129 1.5806.4836 0 .0322.0323.0645.0323.1612 0 .0967-.0323.1935-.0968.3547 0 0-1.129 2.0311-1.1935 2.1923-.1613.0645-2.6452.935-2.6452.935s1.3549.7737 1.6452.9349c-.1613.3224-1.2903 2.4503-1.4194 2.6438h-3c.2581-.4836 1.0968-2.0634 1.0968-2.0634l-1.5161-.9995s-1.5162 2.8372-1.6452 3.0629h-3.0968c.3226-.6126 4.0323-7.4798 4.1613-7.7055h6.0968zm-3.5806 1.3863h-.1291l-1.3226 2.4825 2.5162-.8704.3871-.7416c.129-.2257.129-.4513.0645-.6125-.129-.2257-.4516-.258-.742-.258h-.7741zM80.0968 36.1416c-.3226.6126-3.9678 7.4798-4.0968 7.7055h-3c.3226-.6126 3.9677-7.4798 4.0968-7.7055h3zM48.7097 36.1416h3.7742c.5484 0 1.4194.129 1.6129.4514 0 .0322.0323.0644.0323.1289 0 .0645-.0323.129-.0645.258l-3 5.642c-.6452 1.1929-2.742 1.2252-2.7742 1.2252h-3.9032c-.742 0-1.2258-.129-1.3871-.4192-.0323-.0644-.0646-.1612-.0646-.2579 0-.2579.1291-.5158.1936-.6126 0 0 2.7097-5.0939 2.8387-5.3519.0645-.0644.8065-1.0639 2.7419-1.0639zm1.2258.9027h-.9032l-2.5806 4.8361c-.1613.2902-.1936.5481-.0645.7415.1612.2902.5806.2902.6129.2902h.9032l2.5484-4.8038c.1613-.2902.1935-.5481.0645-.7416-.1613-.2901-.5484-.3224-.5807-.3224zM63.3873 43.3957c-.0645-.0967-.0968-.2257-.0968-.3224 0-.3547.1936-.7415.2904-.8705l1.8709-3.5787c.6774-1.3219 1.2581-2.4503 3.5161-2.4503h6.1291c-.2258.4514-.742 1.4509-.8387 1.6443h-2.7097c.0645-.0967.2903-.5803.2903-.5803h-2.5806l-2.2258 4.3202c-.1291.2902-.2904.6448-.1291.9027.1291.2257.3871.3224.8387.3224h1.0323l.8387-1.6442h-.9032c.1935-.3547.4838-.9028.5484-1.064h3.7742c-.2904.5481-1.8388 3.5787-1.9355 3.7722h-6.1936c-.8064 0-1.3225-.1612-1.5161-.4514zM87.3228 36.1416c1.0968 0 1.8064.2257 2.0322.6126.0646.1289.0968.2579.0968.4191 0 .2902-.0968.6126-.3226 1.0317 0 0-2.3871 5.3841-2.4838 5.6421h-2.9355c.1935-.3869.6774-1.5153.6774-1.5153h-2.5484s-.8387 1.3218-.9677 1.5153h-3.0646c.4839-.6771 5.5807-7.5443 5.7097-7.7055h3.8065zm-1.9355 1.2896h-.129l-2.4194 3.8689h2.0968l1.1935-2.6115c.1613-.3224.2904-.6771.1291-.9672-.1613-.2902-.5484-.2902-.871-.2902z" fill="#fff"/><path d="M28.8065 36.1416h6.1291c-.2258.4514-.742 1.4508-.8387 1.6443h-2.7097c.0645-.0968.2903-.5804.2903-.5804h-2.5806l-2.2258 4.3203c-.1291.2901-.2904.6448-.1291.9027.1291.2257.3871.3224.8387.3224h1.0323l.8387-1.6443h-.9032c.1935-.3546.4838-.9027.5484-1.0639h3.7742c-.2904.5481-1.8388 3.5787-1.9355 3.7721H24.742c-.8064 0-1.3226-.1612-1.4839-.4513-.0645-.0968-.0967-.2257-.0967-.3224 0-.3547.1935-.7416.2903-.8705 0 0 1.9677-3.9978 2.6129-4.9006.6129-.9027 2.2258-1.1284 2.7419-1.1284zM23.8709 45.5879h4.7742l-.871 1.6443h-2.3548c.0967-.1935.3871-.7416.3871-.7416h-1.8388l-.5161.9028c-.1935.3868-.3226.677-.1935.9027.129.2579.4516.3224.9032.3869l1.2903.0967c.4516.0322.7742.1934.9032.4514.1613.2579 0 .6125-.129.8704l-1.0968 2.0957c-.5483 1.0317-2.4193 1.0639-2.4516 1.0639h-3.3871c-.5806 0-.9677-.1289-1.129-.3546-.0645-.0645-.0645-.1612-.0645-.2257 0-.129.0645-.2579.0645-.2579 0-.0323.6129-1.0962.7097-1.3219h1.8709c.3549 0 .6129.0967.5162.2902-.0968.1934-.2258.5158-.0968.7093.129.1934.3871.2256.6452.2256h.7419l.7097-1.3218c.0967-.1612.1613-.3224.1613-.4836 0-.0645-.0323-.1612-.0646-.2257-.1612-.2579-.5161-.3224-.9032-.3547l-1.1613-.0644c-1.1935-.0968-1.2258-.7738-1.2258-.8383 0-.0967.0323-.1934.0645-.3869l.0968-.2901s.5484-1.0317 1.0968-1.9022c.5161-.806 1.9677-.8705 2.5484-.8705zM79.0967 45.7168h1.9678c.0645.3546.6451 4.3847.6451 4.3847s1.8065-4.159 1.9355-4.3847h2.1936c-.2258.5481-2.2903 5.3841-2.2903 5.3841-.7742 1.87-1.8065 2.2246-2.3549 2.2569h-.8064c-.0323-.3547-.5807-4.6104-.5807-4.6104s-2.0645 4.3847-2.1935 4.6104h-2.3226c.3548-.5481 3.7097-7.4153 3.8064-7.641zM88.4516 58.3554c-.2258.2256-.4838.3224-.8064.3224s-.6129-.0968-.8387-.3224c-.2258-.2257-.3226-.4837-.3226-.8383s.129-.6126.3548-.8383c.2258-.2256.4839-.3224.8065-.3224s.5806.129.8064.3547.3549.5158.3549.806c0 .3224-.1291.6126-.3549.8383zm-1.4838-1.5153c-.1936.1934-.2904.4191-.2904.677 0 .2579.0968.4836.2904.6771.1935.1934.4193.2901.6774.2901.258 0 .4838-.0967.6774-.2901.1935-.1935.2903-.4192.2903-.6771s-.0968-.4836-.2903-.677c-.1936-.1935-.4194-.2902-.6774-.2902-.2903 0-.5162.0967-.6774.2902zm.1612 1.3218v-1.2896h.613c.0967 0 .1935.0322.258.0645.129.0645.1613.1612.1613.3224 0 .0967-.0323.1934-.0968.2257-.0645.0644-.129.0644-.2258.0967.0968.0322.1613.0322.1936.0645.0645.0644.129.1612.129.2901v.2257h-.3226c0-.0322-.0322-.0967-.0322-.1612 0-.0645 0-.129-.0323-.1612a88.2979 88.2979 0 00-.0968-.0967c-.0322 0-.0645-.0323-.129-.0323h-.129v.4514h-.2904zm.613-1.0317c-.0323-.0322-.0968-.0322-.1936-.0322h-.0968v.3869h.1291c.0645 0 .129 0 .1935-.0323.0323-.0322.0645-.0967.0645-.1612 0-.0645-.0322-.1612-.0967-.1612z" fill="#fff"/></svg>